<?xml version="1.0" encoding="utf-8"?>
<!-- Generator: Adobe Illustrator 16.0.4, SVG Export Plug-In . SVG Version: 6.00 Build 0)  -->
<!DOCTYPE svg PUBLIC "-//W3C//DTD SVG 1.1//EN" "http://www.w3.org/Graphics/SVG/1.1/DTD/svg11.dtd">
<svg version="1.1" id="Layer_1" xmlns="http://www.w3.org/2000/svg" xmlns:xlink="http://www.w3.org/1999/xlink" x="0px" y="0px"
	 width="24.465px" height="22.797px" viewBox="0 0 24.465 22.797" enable-background="new 0 0 24.465 22.797" xml:space="preserve">
<g id="Layer_1_1_">
	<path fill="#343838" d="M14.136,24.104h-3.488c-0.479,0-0.867-0.373-0.867-0.832v-23.96c0-0.461,0.389-0.832,0.867-0.832h3.488
		c0.479,0,0.867,0.371,0.867,0.832v23.96C15.003,23.731,14.615,24.104,14.136,24.104L14.136,24.104z M24.543,14.118H0.241
		c-0.479,0-0.866-0.371-0.866-0.832v-3.99c0-0.459,0.388-0.832,0.866-0.832h24.302c0.479,0,0.865,0.373,0.865,0.832v3.99
		C25.409,13.747,25.021,14.118,24.543,14.118L24.543,14.118z"/>
</g>
</svg>
