<?xml version="1.0" encoding="utf-8"?>
<!-- Generator: Adobe Illustrator 16.0.4, SVG Export Plug-In . SVG Version: 6.00 Build 0)  -->
<!DOCTYPE svg PUBLIC "-//W3C//DTD SVG 1.1//EN" "http://www.w3.org/Graphics/SVG/1.1/DTD/svg11.dtd">
<svg version="1.1" xmlns="http://www.w3.org/2000/svg" xmlns:xlink="http://www.w3.org/1999/xlink" x="0px" y="0px"
	 width="24.465px" height="22.798px" viewBox="3.619 26.042 24.465 22.798" enable-background="new 3.619 26.042 24.465 22.798"
	 xml:space="preserve">
<g id="Layer_1">
	<path fill="#CF2425" d="M18.594,51.166h-5.203c-0.479,0-0.867-0.372-0.867-0.832V25.373c0-0.46,0.389-0.831,0.867-0.831h5.203
		c0.479,0,0.867,0.371,0.867,0.831v24.961C19.461,50.793,19.073,51.166,18.594,51.166L18.594,51.166z M29.001,41.181H2.984
		c-0.479,0-0.866-0.372-0.866-0.832v-4.991c0-0.459,0.388-0.832,0.866-0.832h26.017c0.479,0,0.865,0.373,0.865,0.832v4.991
		C29.867,40.809,29.479,41.181,29.001,41.181L29.001,41.181z"/>
</g>
<g id="Creative_Commons_License" display="none">
	
		<text id="Creative_Commons_License_1_" transform="matrix(1 0 0 1 -14.1665 70.7104)" display="inline" font-family="'MyriadPro-Regular'" font-size="12">With assets by Visual Idiot / CC BY</text>
</g>
</svg>
