<?xml version="1.0" encoding="utf-8"?>
<!-- Generator: Adobe Illustrator 16.0.4, SVG Export Plug-In . SVG Version: 6.00 Build 0)  -->
<!DOCTYPE svg PUBLIC "-//W3C//DTD SVG 1.1//EN" "http://www.w3.org/Graphics/SVG/1.1/DTD/svg11.dtd">
<svg version="1.1" id="Layer_1" xmlns="http://www.w3.org/2000/svg" xmlns:xlink="http://www.w3.org/1999/xlink" x="0px" y="0px"
	 width="12px" height="12px" viewBox="6.232 5.398 12 12" enable-background="new 6.232 5.398 12 12" xml:space="preserve">
<g id="Layer_1_1_">
	<path fill="#343838" d="M13.046,18.538h-1.962c-0.27,0-0.488-0.21-0.488-0.468V4.588c0-0.259,0.219-0.468,0.488-0.468h1.962
		c0.27,0,0.488,0.209,0.488,0.468V18.07C13.534,18.328,13.315,18.538,13.046,18.538L13.046,18.538z M18.9,12.919H5.228
		c-0.27,0-0.487-0.209-0.487-0.468v-2.246c0-0.258,0.219-0.467,0.487-0.467H18.9c0.27,0,0.488,0.209,0.488,0.467v2.246
		C19.389,12.71,19.17,12.919,18.9,12.919L18.9,12.919z"/>
</g>
</svg>
