<?xml version="1.0" encoding="utf-8"?>
<!-- Generator: Adobe Illustrator 16.0.4, SVG Export Plug-In . SVG Version: 6.00 Build 0)  -->
<!DOCTYPE svg PUBLIC "-//W3C//DTD SVG 1.1//EN" "http://www.w3.org/Graphics/SVG/1.1/DTD/svg11.dtd">
<svg version="1.1" xmlns="http://www.w3.org/2000/svg" xmlns:xlink="http://www.w3.org/1999/xlink" x="0px" y="0px"
	 width="24.465px" height="22.797px" viewBox="0 0 24.465 22.797" enable-background="new 0 0 24.465 22.797" xml:space="preserve">
<g id="Layer_1">
	<g id="Small_Icons">
		<g id="Artboard_4">
			<path id="Rectangle_63" fill="#2F7C2F" d="M20.82,2.507l3.264,2.734c0.193,0.165,0.23,0.473,0.062,0.674l-14.021,16.71
				c-0.11,0.132-0.263,0.188-0.414,0.168c-0.105-0.005-0.208-0.045-0.294-0.116L0.18,14.926c-0.207-0.171-0.242-0.482-0.07-0.685
				l2.728-3.251c0.165-0.196,0.478-0.224,0.688-0.047l5.627,4.722L20.146,2.561C20.328,2.348,20.617,2.336,20.82,2.507z"/>
		</g>
	</g>
</g>
<g id="Creative_Commons_License" display="none">
	
		<text id="Creative_Commons_License_1_" transform="matrix(1 0 0 1 3.7324 33.9429)" display="inline" font-family="'MyriadPro-Regular'" font-size="12">With assets by Tuts+ / CC BY</text>
</g>
</svg>
