<?xml version="1.0" encoding="utf-8"?>
<!-- Generator: Adobe Illustrator 16.0.4, SVG Export Plug-In . SVG Version: 6.00 Build 0)  -->
<!DOCTYPE svg PUBLIC "-//W3C//DTD SVG 1.1//EN" "http://www.w3.org/Graphics/SVG/1.1/DTD/svg11.dtd">
<svg version="1.1" xmlns="http://www.w3.org/2000/svg" xmlns:xlink="http://www.w3.org/1999/xlink" x="0px" y="0px" width="10.8px"
	 height="5.76px" viewBox="0.022 11.016 10.8 5.76" enable-background="new 0.022 11.016 10.8 5.76" xml:space="preserve">
<g id="Layer_1">
	<path fill="#949494" d="M4.907,12.773l-0.75,0.75l-0.972-0.972L2.458,13.28l-0.001-2.175l2.189-0.013l-0.71,0.709L4.907,12.773
		L4.907,12.773z M3.936,16.009l0.71,0.71l-2.189,0.005l0.001-2.193l0.728,0.729l0.972-0.972l0.75,0.749L3.936,16.009L3.936,16.009z
		 M8.063,11.106l-0.001,2.175l-0.728-0.729l-0.972,0.972l-0.75-0.749l0.972-0.972l-0.711-0.71L8.063,11.106L8.063,11.106z
		 M5.874,16.719l0.711-0.71l-0.972-0.973l0.75-0.748l0.972,0.972l0.728-0.729l0.001,2.193L5.874,16.719L5.874,16.719z"/>
</g>
<g id="Creative_Commons_License" display="none">
	
		<text id="Creative_Commons_License_1_" transform="matrix(1 0 0 1 -17.875 39.9395)" display="inline" font-family="'MyriadPro-Regular'" font-size="12">With assets by Visual Idiot, Brankic1979 / CC BY</text>
</g>
</svg>
