<?xml version="1.0" encoding="utf-8"?>
<!-- Generator: Adobe Illustrator 16.0.4, SVG Export Plug-In . SVG Version: 6.00 Build 0)  -->
<!DOCTYPE svg PUBLIC "-//W3C//DTD SVG 1.1//EN" "http://www.w3.org/Graphics/SVG/1.1/DTD/svg11.dtd">
<svg version="1.1" id="Layer_1" xmlns="http://www.w3.org/2000/svg" xmlns:xlink="http://www.w3.org/1999/xlink" x="0px" y="0px"
	 width="21px" height="21px" viewBox="39.5 39.5 21 21" enable-background="new 39.5 39.5 21 21" xml:space="preserve">
<g id="Your_Icon">
	<g>
		<g>
			<path fill="#B0B0B0" d="M50,60c-5.514,0-10-4.486-10-10c0-5.514,4.486-10,10-10c5.514,0,10,4.486,10,10
				C60,55.514,55.514,60,50,60z M50,41.887c-4.474,0-8.113,3.64-8.113,8.113s3.64,8.113,8.113,8.113s8.113-3.64,8.113-8.113
				S54.474,41.887,50,41.887z"/>
		</g>
		<g>
			<g>
				<path fill="#B0B0B0" d="M47.601,54.655c0.044-0.195,0.11-0.452,0.198-0.772l1.186-4.332c0.013-0.05,0.023-0.101,0.033-0.151
					c0.009-0.05,0.014-0.097,0.014-0.141c0-0.257-0.082-0.417-0.245-0.48s-0.46-0.104-0.893-0.123v-0.508
					c0.362-0.025,0.887-0.077,1.575-0.156c0.689-0.078,1.177-0.146,1.463-0.202l0.823-0.16l-1.497,5.49
					c-0.125,0.471-0.21,0.797-0.254,0.979c-0.113,0.465-0.17,0.766-0.17,0.903c0,0.139,0.032,0.229,0.095,0.269
					c0.062,0.041,0.132,0.062,0.208,0.062c0.195,0,0.438-0.166,0.727-0.499c0.29-0.333,0.545-0.682,0.765-1.046l0.424,0.273
					c-0.628,0.923-1.109,1.544-1.443,1.864c-0.546,0.527-1.131,0.791-1.753,0.791c-0.352,0-0.668-0.107-0.948-0.325
					c-0.28-0.216-0.419-0.547-0.419-0.993C47.487,55.242,47.525,54.994,47.601,54.655z M52.136,43.704
					c0.251,0.251,0.377,0.556,0.377,0.914s-0.126,0.664-0.377,0.918c-0.251,0.254-0.556,0.381-0.914,0.381
					c-0.357,0-0.663-0.127-0.917-0.381s-0.381-0.56-0.381-0.918s0.127-0.662,0.381-0.914c0.254-0.251,0.56-0.376,0.917-0.376
					C51.58,43.327,51.885,43.453,52.136,43.704z"/>
			</g>
		</g>
	</g>
</g>
</svg>
