<svg xmlns="http://www.w3.org/2000/svg" xmlns:xlink="http://www.w3.org/1999/xlink" version="1.1" id="Layer_1" x="0px" y="0px" width="100px" height="100px" viewBox="0 0 100 100" enable-background="new 0 0 100 100" xml:space="preserve">
<path d="M14.601,78.497c0,0.496-0.407,0.902-0.903,0.902H5.902C5.406,79.399,5,78.993,5,78.497V21.502  C5,21.006,5.406,20.6,5.902,20.6h7.796c0.496,0,0.903,0.406,0.903,0.902V78.497z"/>
<path d="M61.399,78.497c0,0.496-0.405,0.902-0.902,0.902h-7.794c-0.497,0-0.903-0.406-0.903-0.902V21.502  c0-0.496,0.406-0.902,0.903-0.902h7.794c0.497,0,0.902,0.406,0.902,0.902V78.497z"/>
<path d="M95,78.497c0,0.496-0.406,0.902-0.903,0.902h-7.796c-0.499,0-0.902-0.406-0.902-0.902V21.502  c0-0.496,0.403-0.902,0.902-0.902h7.796c0.497,0,0.903,0.406,0.903,0.902V78.497z"/>
<path d="M80.601,78.497c0,0.496-0.406,0.902-0.902,0.902H64.702c-0.496,0-0.902-0.406-0.902-0.902V21.502  c0-0.496,0.406-0.902,0.902-0.902h14.996c0.496,0,0.902,0.406,0.902,0.902V78.497L80.601,78.497z"/>
<path d="M35.251,77.575c0.067,0.492-0.278,0.95-0.771,1.017l-7.722,1.066c-0.492,0.067-0.949-0.28-1.017-0.77l-7.795-56.462  c-0.069-0.492,0.279-0.95,0.771-1.017l7.722-1.066c0.492-0.067,0.95,0.279,1.017,0.771L35.251,77.575z"/>
<path d="M47.204,78.647c-0.018,0.495-0.437,0.886-0.933,0.87l-7.792-0.272c-0.495-0.019-0.887-0.438-0.871-0.934l1.984-56.959  c0.018-0.496,0.437-0.888,0.933-0.871l7.792,0.271c0.495,0.018,0.887,0.437,0.871,0.933L47.204,78.647z"/>
</svg>