<?xml version="1.0" encoding="utf-8"?>
<!-- Generator: Adobe Illustrator 16.0.4, SVG Export Plug-In . SVG Version: 6.00 Build 0)  -->
<!DOCTYPE svg PUBLIC "-//W3C//DTD SVG 1.1//EN" "http://www.w3.org/Graphics/SVG/1.1/DTD/svg11.dtd">
<svg version="1.1" id="Layer_1" xmlns="http://www.w3.org/2000/svg" xmlns:xlink="http://www.w3.org/1999/xlink" x="0px" y="0px"
	 width="100px" height="100px" viewBox="0 0 100 100" enable-background="new 0 0 100 100" xml:space="preserve">
<path fill="#EFEFEF" d="M14.601,78.497c0,0.496-0.407,0.901-0.903,0.901H5.902C5.406,79.398,5,78.993,5,78.497V21.502
	C5,21.006,5.406,20.6,5.902,20.6h7.796c0.496,0,0.903,0.406,0.903,0.902V78.497z"/>
<path fill="#EFEFEF" d="M61.398,78.497c0,0.496-0.404,0.901-0.901,0.901h-7.794c-0.497,0-0.903-0.405-0.903-0.901V21.502
	c0-0.496,0.406-0.902,0.903-0.902h7.794c0.497,0,0.901,0.406,0.901,0.902V78.497z"/>
<path fill="#EFEFEF" d="M95,78.497c0,0.496-0.406,0.901-0.902,0.901h-7.797c-0.499,0-0.902-0.405-0.902-0.901V21.502
	c0-0.496,0.403-0.902,0.902-0.902h7.797c0.496,0,0.902,0.406,0.902,0.902V78.497z"/>
<path fill="#EFEFEF" d="M80.602,78.497c0,0.496-0.406,0.901-0.902,0.901H64.702c-0.496,0-0.902-0.405-0.902-0.901V21.502
	c0-0.496,0.406-0.902,0.902-0.902h14.996c0.495,0,0.901,0.406,0.901,0.902v56.995H80.602z"/>
<path fill="#EFEFEF" d="M35.251,77.575c0.067,0.491-0.278,0.95-0.771,1.017l-7.722,1.066c-0.492,0.066-0.949-0.28-1.017-0.77
	l-7.795-56.463c-0.069-0.492,0.279-0.95,0.771-1.017l7.722-1.066c0.492-0.067,0.95,0.279,1.017,0.771L35.251,77.575z"/>
<path fill="#EFEFEF" d="M47.204,78.646c-0.018,0.496-0.437,0.887-0.933,0.871l-7.792-0.272c-0.495-0.019-0.887-0.438-0.871-0.935
	l1.984-56.958c0.018-0.496,0.437-0.888,0.933-0.871l7.792,0.271c0.495,0.018,0.887,0.437,0.871,0.933L47.204,78.646z"/>
</svg>
