<?xml version="1.0" encoding="utf-8"?>
<!-- Generator: Adobe Illustrator 16.0.4, SVG Export Plug-In . SVG Version: 6.00 Build 0)  -->
<!DOCTYPE svg PUBLIC "-//W3C//DTD SVG 1.1//EN" "http://www.w3.org/Graphics/SVG/1.1/DTD/svg11.dtd">
<svg version="1.1" xmlns="http://www.w3.org/2000/svg" xmlns:xlink="http://www.w3.org/1999/xlink" x="0px" y="0px" width="31.68px"
	 height="31.68px" viewBox="0 0 31.68 31.68" enable-background="new 0 0 31.68 31.68" xml:space="preserve">
<g id="Layer_2">
	<path fill="#949494" d="M24.514,7.954l-4.533,7.851c-0.717,1.241-2.299,1.665-3.539,0.95l-1.121-0.648l1.294-2.243l0,0
		c0.617,0.357,1.412,0.145,1.766-0.473l3.242-5.607c0.355-0.62,0.143-1.411-0.477-1.771L16.66,3.422
		c-0.619-0.356-1.413-0.145-1.767,0.473l-3.239,5.607c-0.357,0.62-0.145,1.412,0.475,1.771l-1.295,2.242l-1.12-0.649
		c-1.239-0.716-1.665-2.298-0.949-3.537l4.534-7.851c0.715-1.24,2.298-1.664,3.538-0.947l6.729,3.885
		C24.801,5.132,25.229,6.716,24.514,7.954L24.514,7.954z M9.192,21.541c-0.619-0.359-0.832-1.15-0.473-1.771l5.177-8.971
		c0.358-0.62,1.152-0.831,1.771-0.474c0.62,0.357,0.833,1.149,0.473,1.771l-5.18,8.972C10.604,21.686,9.812,21.898,9.192,21.541
		L9.192,21.541z M8.244,18.002L8.244,18.002c-0.62-0.357-1.411-0.145-1.768,0.473l-3.238,5.607
		c-0.357,0.621-0.146,1.412,0.475,1.771l4.485,2.588c0.62,0.357,1.411,0.145,1.768-0.473l3.237-5.607
		c0.355-0.621,0.146-1.412-0.474-1.771l0,0l1.296-2.242l1.12,0.648c1.241,0.717,1.665,2.297,0.948,3.537l-4.532,7.852
		c-0.716,1.238-2.299,1.662-3.539,0.947l-6.727-3.887c-1.24-0.715-1.665-2.297-0.949-3.537l4.531-7.852
		c0.716-1.238,2.3-1.662,3.539-0.947l1.121,0.648L8.244,18.002L8.244,18.002z"/>
</g>
<g id="Creative_Commons_License" display="none">
	
		<text id="Creative_Commons_License_1_" transform="matrix(1 0 0 1 -18.1602 72.8838)" display="inline" font-family="'MyriadPro-Regular'" font-size="12">With assets by Brankic1979 / CC BY</text>
</g>
</svg>
