<?xml version="1.0" encoding="utf-8"?>
<!-- Generator: Adobe Illustrator 16.0.4, SVG Export Plug-In . SVG Version: 6.00 Build 0)  -->
<!DOCTYPE svg PUBLIC "-//W3C//DTD SVG 1.1//EN" "http://www.w3.org/Graphics/SVG/1.1/DTD/svg11.dtd">
<svg version="1.1" id="Layer_1" xmlns="http://www.w3.org/2000/svg" xmlns:xlink="http://www.w3.org/1999/xlink" x="0px" y="0px"
	 width="197px" height="278px" viewBox="0 0 197 278" enable-background="new 0 0 197 278" xml:space="preserve">
<g id="Layer_1_1_">
	<path fill="#0F1010" d="M114.963,54.735V79.81c0,9.237-7.486,16.719-16.717,16.719c-9.229,0-16.724-7.482-16.724-16.719V54.735
		c0-9.237,7.49-16.723,16.724-16.723C107.477,38.012,114.963,45.498,114.963,54.735L114.963,54.735z M131.682,272.085H64.807
		c-32.318,0-58.518-26.196-58.518-58.519V63.095c0-32.322,26.2-58.518,58.518-58.518h25.075V31.19
		c-9.723,3.447-16.719,12.64-16.719,23.544V79.81c0,10.905,7,20.097,16.719,23.544v18.254h16.722v-18.254
		c9.715-3.447,16.72-12.64,16.72-23.544V54.735c0-10.905-7.005-20.097-16.72-23.544V4.577h25.08
		c32.315,0,58.518,26.196,58.518,58.518v150.464C190.2,245.889,163.999,272.085,131.682,272.085L131.682,272.085z"/>
</g>
<g id="Creative_Commons_License" display="none">
	
		<text id="Creative_Commons_License_1_" transform="matrix(1 0 0 1 -184 -86.9561)" display="inline" font-family="'MyriadPro-Regular'" font-size="12">With assets by Budi Tanrim / CC BY</text>
</g>
</svg>
