<svg xmlns="http://www.w3.org/2000/svg" xmlns:xlink="http://www.w3.org/1999/xlink" version="1.1" id="Layer_1" x="0px" y="0px" width="100px" height="100px" viewBox="0 0 100 100" enable-background="new 0 0 100 100" xml:space="preserve">
<g>
	<g>
		<path d="M50,99.77h-0.498l-0.005-0.037c-20.253-0.212-23.36-13.294-23.831-17.342c-0.709-6.098-0.792-10.922-0.898-17.115    c-0.022-1.27-0.044-2.56-0.073-3.958c-0.176-8.52,0.198-34.807,1.05-45.194C26.569,6.072,35.226,0.2,49.495,0    c14.454,0.202,23.561,6.238,24.373,16.137c0.83,10.118,1.374,36.682,1.196,45.212c-0.171,8.283-0.393,13.843-1.243,21.177    C72.891,90.49,69.008,99.644,50,100V99.77z M49.495,1.005c-13.68,0.192-21.98,5.739-22.758,15.218    c-0.833,10.161-1.218,36.825-1.046,45.107c0.03,1.4,0.052,2.727,0.074,3.998c0.104,6.166,0.188,11.036,0.891,17.086    c0.447,3.844,3.412,16.396,22.847,16.601c21.471-0.193,22.812-11.69,23.383-16.601c0.849-7.29,1.014-12.829,1.185-21.084    c0.177-8.512-0.366-35.014-1.193-45.107C72.109,6.889,63.369,1.199,49.495,1.005z"/>
	</g>
	<g>
		<rect x="49" y="0.731" width="1" height="8.003"/>
	</g>
	<g>
		<rect x="49" y="28.742" width="1" height="6.002"/>
	</g>
	<g>
		<path d="M53.001,24.251c0,1.375-1.114,2.49-2.489,2.49h-2.023c-1.375,0-2.49-1.115-2.49-2.49V13.225c0-1.375,1.115-2.49,2.49-2.49    h2.023c1.375,0,2.489,1.114,2.489,2.49V24.251z M52.001,13.229c0-0.825-0.669-1.494-1.494-1.494h-2.015    c-0.825,0-1.494,0.669-1.494,1.494v11.018c0,0.825,0.668,1.494,1.494,1.494h2.015c0.825,0,1.494-0.669,1.494-1.494V13.229z"/>
	</g>
</g>
</svg>