<?xml version="1.0" encoding="utf-8"?>
<!-- Generator: Adobe Illustrator 16.0.4, SVG Export Plug-In . SVG Version: 6.00 Build 0)  -->
<!DOCTYPE svg PUBLIC "-//W3C//DTD SVG 1.1//EN" "http://www.w3.org/Graphics/SVG/1.1/DTD/svg11.dtd">
<svg version="1.1" id="Layer_2" xmlns="http://www.w3.org/2000/svg" xmlns:xlink="http://www.w3.org/1999/xlink" x="0px" y="0px"
	 width="90px" height="90px" viewBox="0 0 90 90" enable-background="new 0 0 90 90" xml:space="preserve">
<g id="playlisticon.psd">
	<g id="playlisticon">
		<g id="Shape_1_1_">
			<rect x="45.297" y="45.875" fill="#EFEFEF" width="43.129" height="4.626"/>
		</g>
		<g id="Shape_1_copy_1_">
			<rect x="45.297" y="58.2" fill="#EFEFEF" width="43.129" height="4.627"/>
		</g>
		<g id="Shape_1_copy_2_1_">
			<rect x="45.297" y="70.524" fill="#EFEFEF" width="43.129" height="4.627"/>
		</g>
		<g id="Shape_1_copy_3_1_">
			<rect x="45.297" y="82.849" fill="#EFEFEF" width="43.129" height="4.626"/>
		</g>
	</g>
</g>
<g>
	<g>
		<path fill="#EFEFEF" d="M48.332,25.815c-3.498-4.05-8.952,1.968-10.833,4.3l0,0c0,0-5.742,7.096-7.372,4.375
			c3.185,13.139,6.244,30.279,7.999,40.697c-2.357-3.912-9.127-6.908-17.239-7.222c-10.218-0.389-18.668,3.648-18.881,9.015
			C1.805,82.347,9.929,87.011,20.147,87.4c10.218,0.389,18.668-3.648,18.869-9.015c0.013-0.238,0-0.489-0.025-0.739
			c0.038-0.176,0.062-0.352,0.05-0.515c-1.003-16.061-1.366-29.601-1.479-37.976c2.946-3.51,7.284-10.682,9.955-7.334
			C63.339,51.693,73.52,16.613,73.52,16.613C65.972,35.669,56.167,34.893,48.332,25.815z"/>
	</g>
</g>
</svg>
