<?xml version="1.0" encoding="utf-8"?>
<!-- Generator: Adobe Illustrator 16.0.4, SVG Export Plug-In . SVG Version: 6.00 Build 0)  -->
<!DOCTYPE svg PUBLIC "-//W3C//DTD SVG 1.1//EN" "http://www.w3.org/Graphics/SVG/1.1/DTD/svg11.dtd">
<svg version="1.1" id="Layer_2" xmlns="http://www.w3.org/2000/svg" xmlns:xlink="http://www.w3.org/1999/xlink" x="0px" y="0px"
	 width="14.22px" height="12.676px" viewBox="0 0 14.22 12.676" enable-background="new 0 0 14.22 12.676" xml:space="preserve">
<g id="playlisticon.psd">
	<g id="playlisticon">
		<g>
			<g id="Shape_1_6_">
				<g>
					<rect x="7.5" y="5.716" fill="#EFEFEF" width="6.72" height="0.72"/>
				</g>
			</g>
			<g id="Shape_1_copy_6_">
				<g>
					<rect x="7.5" y="7.636" fill="#EFEFEF" width="6.72" height="0.721"/>
				</g>
			</g>
			<g id="Shape_1_copy_2_6_">
				<g>
					<rect x="7.5" y="9.556" fill="#EFEFEF" width="6.72" height="0.721"/>
				</g>
			</g>
			<g id="Shape_1_copy_3_6_">
				<g>
					<rect x="7.5" y="11.476" fill="#EFEFEF" width="6.72" height="0.721"/>
				</g>
			</g>
		</g>
	</g>
</g>
<g>
	<g>
		<path fill="#EFEFEF" d="M7.974,2.59C7.429,1.959,6.578,2.898,6.285,3.261V3.26c0,0-0.894,1.106-1.148,0.682
			c0.496,2.047,0.974,4.718,1.247,6.34C6.017,9.673,4.961,9.206,3.697,9.158c-1.592-0.062-2.908,0.567-2.94,1.403
			s1.233,1.562,2.825,1.624c1.592,0.061,2.909-0.568,2.94-1.404c0.002-0.038,0-0.077-0.004-0.116c0.006-0.026,0.01-0.054,0.008-0.08
			C6.369,8.083,6.313,5.973,6.295,4.669c0.46-0.548,1.135-1.664,1.551-1.143c2.465,3.095,4.052-2.37,4.052-2.37
			C10.722,4.125,9.194,4.005,7.974,2.59z"/>
	</g>
</g>
</svg>
