<?xml version="1.0" encoding="utf-8"?>
<!-- Generator: Adobe Illustrator 16.0.4, SVG Export Plug-In . SVG Version: 6.00 Build 0)  -->
<!DOCTYPE svg PUBLIC "-//W3C//DTD SVG 1.1//EN" "http://www.w3.org/Graphics/SVG/1.1/DTD/svg11.dtd">
<svg version="1.1" id="Layer_1" xmlns="http://www.w3.org/2000/svg" xmlns:xlink="http://www.w3.org/1999/xlink" x="0px" y="0px"
	 width="73.667px" height="33px" viewBox="0 0 73.667 33" enable-background="new 0 0 73.667 33" xml:space="preserve">
<path fill="#EBEBEB" d="M30.455,30.745c-1.079,1.079-2.83,1.079-3.91,0l-4.877-4.879c-2.005,1.286-4.376,2.054-6.937,2.054
	c-7.124,0-12.898-5.774-12.898-12.898S7.607,2.123,14.731,2.123s12.898,5.774,12.898,12.898c0,2.559-0.768,4.931-2.054,6.937
	l4.879,4.878C31.534,27.915,31.534,29.666,30.455,30.745L30.455,30.745z M14.731,5.808c-5.089,0-9.213,4.125-9.213,9.213
	s4.124,9.213,9.213,9.213c5.088,0,9.213-4.124,9.213-9.213S19.819,5.808,14.731,5.808L14.731,5.808z"/>
<path fill="#EBEBEB" d="M64.833,1.623h-25c-4.125,0-7.5,3.375-7.5,7.5v15c0,4.125,3.375,7.5,7.5,7.5h25c4.125,0,7.5-3.375,7.5-7.5
	v-15C72.333,4.998,68.958,1.623,64.833,1.623z M69.833,24.123c0,1.327-0.521,2.581-1.471,3.529
	c-0.949,0.947-2.202,1.471-3.529,1.471h-25c-1.327,0-2.581-0.521-3.529-1.471c-0.948-0.949-1.471-2.202-1.471-3.529v-15
	c0-1.327,0.522-2.58,1.471-3.529c0.949-0.949,2.202-1.471,3.529-1.471h25c1.327,0,2.581,0.522,3.529,1.471
	c0.949,0.949,1.471,2.202,1.471,3.529V24.123z M47.333,26.623l12.5-10l-12.5-10V26.623z"/>
</svg>
