<?xml version="1.0" encoding="utf-8"?>
<!-- Generator: Adobe Illustrator 16.0.4, SVG Export Plug-In . SVG Version: 6.00 Build 0)  -->
<!DOCTYPE svg PUBLIC "-//W3C//DTD SVG 1.1//EN" "http://www.w3.org/Graphics/SVG/1.1/DTD/svg11.dtd">
<svg version="1.1" xmlns="http://www.w3.org/2000/svg" xmlns:xlink="http://www.w3.org/1999/xlink" x="0px" y="0px"
	 width="39.996px" height="36px" viewBox="0 0 39.996 36" enable-background="new 0 0 39.996 36" xml:space="preserve">
<g id="Layer_1">
	<path fill="#353939" d="M37.954,34.125L27.352,23.799c2.131-2.496,3.413-5.702,3.413-9.203c0-7.954-6.62-14.4-14.788-14.4
		c-8.167,0-14.789,6.446-14.789,14.4c0,7.954,6.622,14.403,14.789,14.403c3.594,0,6.885-1.25,9.447-3.324L36.026,36L37.954,34.125
		L37.954,34.125z M2.746,14.596c0-7.104,5.934-12.885,13.231-12.885c7.295,0,13.23,5.781,13.23,12.885
		c0,7.106-5.936,12.886-13.23,12.886C8.681,27.483,2.746,21.703,2.746,14.596L2.746,14.596z"/>
</g>
<g id="Creative_Commons_License" display="none">
	
		<text id="Creative_Commons_License_1_" transform="matrix(1 0 0 1 -12.0039 8.0439)" display="inline" font-family="'MyriadPro-Regular'" font-size="12">With assets by Budi Tanrim, Pixeden / CC BY</text>
</g>
</svg>
