<?xml version="1.0" encoding="utf-8"?>
<!-- Generator: Adobe Illustrator 16.0.4, SVG Export Plug-In . SVG Version: 6.00 Build 0)  -->
<!DOCTYPE svg PUBLIC "-//W3C//DTD SVG 1.1//EN" "http://www.w3.org/Graphics/SVG/1.1/DTD/svg11.dtd">
<svg version="1.1" id="Layer_1" xmlns="http://www.w3.org/2000/svg" xmlns:xlink="http://www.w3.org/1999/xlink" x="0px" y="0px"
	 width="21px" height="21px" viewBox="39.5 39.5 21 21" enable-background="new 39.5 39.5 21 21" xml:space="preserve">
<path fill="#B0B0B0" d="M56.881,53.264c-0.937,0-1.787,0.359-2.43,0.943l-6.918-3.526c0.028-0.18,0.047-0.363,0.047-0.551
	c0-0.106-0.007-0.21-0.016-0.313l6.983-3.56c0.63,0.533,1.444,0.856,2.334,0.856c2,0,3.619-1.619,3.619-3.618
	s-1.619-3.618-3.619-3.618c-1.997,0-3.618,1.62-3.618,3.618c0,0.11,0.008,0.219,0.018,0.327l-6.974,3.556
	c-0.631-0.539-1.449-0.866-2.344-0.866c-1.998,0-3.619,1.62-3.619,3.618c0,1.999,1.621,3.619,3.619,3.619
	c0.806,0,1.547-0.268,2.149-0.713l7.162,3.651c-0.003,0.065-0.01,0.129-0.01,0.194c0,1.999,1.621,3.618,3.618,3.618
	c1.999,0,3.619-1.619,3.619-3.618C60.5,54.884,58.88,53.264,56.881,53.264z"/>
</svg>
