<?xml version="1.0" encoding="utf-8"?>
<!-- Generator: Adobe Illustrator 16.0.4, SVG Export Plug-In . SVG Version: 6.00 Build 0)  -->
<!DOCTYPE svg PUBLIC "-//W3C//DTD SVG 1.1//EN" "http://www.w3.org/Graphics/SVG/1.1/DTD/svg11.dtd">
<svg version="1.1" xmlns="http://www.w3.org/2000/svg" xmlns:xlink="http://www.w3.org/1999/xlink" x="0px" y="0px" width="21px"
	 height="21px" viewBox="0 0 21 21" enable-background="new 0 0 21 21" xml:space="preserve">
<g id="Layer_1">
	<path fill="#EBEBEB" d="M10.625,21C4.896,21,0.25,16.355,0.25,10.625S4.896,0.25,10.625,0.25C16.355,0.25,21,4.895,21,10.625
		S16.355,21,10.625,21L10.625,21z M10.625,1.081c-5.263,0-9.544,4.283-9.544,9.545c0,5.263,4.281,9.544,9.544,9.544
		c5.264,0,9.545-4.281,9.545-9.544C20.17,5.362,15.889,1.081,10.625,1.081L10.625,1.081z M4.429,11.04v-0.829h12.422v0.829H4.429z"
		/>
</g>
<g id="Creative_Commons_License" display="none">
	
		<text id="Creative_Commons_License_1_" transform="matrix(1 0 0 1 2 11.0439)" display="inline" font-family="'MyriadPro-Regular'" font-size="12">With assets by Pixeden / CC BY</text>
</g>
</svg>
