<?xml version="1.0" encoding="utf-8"?>
<!-- Generator: Adobe Illustrator 16.0.4, SVG Export Plug-In . SVG Version: 6.00 Build 0)  -->
<!DOCTYPE svg PUBLIC "-//W3C//DTD SVG 1.1//EN" "http://www.w3.org/Graphics/SVG/1.1/DTD/svg11.dtd">
<svg version="1.1" id="Layer_1" xmlns="http://www.w3.org/2000/svg" xmlns:xlink="http://www.w3.org/1999/xlink" x="0px" y="0px"
	 width="12px" height="12px" viewBox="0 0 12 12" enable-background="new 0 0 12 12" xml:space="preserve">
<polygon fill="#EBEBEB" points="12,7.734 10.922,8.812 9.562,7.451 8.201,8.812 7.125,7.736 8.484,6.375 7.125,5.014 8.201,3.938 
	9.562,5.297 10.922,3.938 12,5.016 10.639,6.375 "/>
<path fill="#EBEBEB" d="M6.113,11.811c0,0.199-0.117,0.25-0.26,0.109L2.216,8.372V4.521l3.638-3.547
	c0.143-0.141,0.26-0.091,0.26,0.109v10.728H6.113z"/>
<path fill="#EBEBEB" d="M1.837,4.525H1.383c0-0.168-0.136-0.303-0.303-0.303c-0.168,0-0.305,0.135-0.305,0.303V5.1
	C0.312,5.375,0,5.88,0,6.458c0,0.579,0.312,1.084,0.775,1.358v0.578c0,0.168,0.137,0.305,0.305,0.305
	c0.167,0,0.303-0.137,0.303-0.305V8.374h0.454V4.525L1.837,4.525z"/>
</svg>
