<?xml version="1.0" encoding="utf-8"?>
<!-- Generator: Adobe Illustrator 16.0.4, SVG Export Plug-In . SVG Version: 6.00 Build 0)  -->
<!DOCTYPE svg PUBLIC "-//W3C//DTD SVG 1.1//EN" "http://www.w3.org/Graphics/SVG/1.1/DTD/svg11.dtd">
<svg version="1.1" id="Layer_1" xmlns="http://www.w3.org/2000/svg" xmlns:xlink="http://www.w3.org/1999/xlink" x="0px" y="0px"
	 width="100px" height="94.504px" viewBox="0 0 100 94.504" enable-background="new 0 0 100 94.504" xml:space="preserve">
<path fill="#EBEBEB" d="M52.036,92.891c0,1.706-0.998,2.128-2.219,0.938L18.869,63.633V30.871L49.817,0.677
	c1.221-1.191,2.219-0.77,2.219,0.936V92.891L52.036,92.891z"/>
<path fill="#EBEBEB" d="M72.699,86.645c-1.021,0-1.99-0.609-2.396-1.617c-0.533-1.322,0.107-2.826,1.432-3.363
	C85.764,76,94.829,62.565,94.829,47.439c0-15.269-9.601-29.148-23.888-34.537c-1.334-0.504-2.008-1.995-1.504-3.331
	c0.504-1.335,2-2.005,3.328-1.505C89.055,14.208,100,30.031,100,47.439c0,17.243-10.335,32.558-26.333,39.019
	C73.348,86.584,73.021,86.645,72.699,86.645z"/>
<path fill="#EBEBEB" d="M65.67,76.913c-1.021,0-1.99-0.611-2.396-1.617c-0.533-1.322,0.105-2.828,1.43-3.363
	c10.041-4.057,16.529-13.668,16.529-24.492c0-10.925-6.869-20.857-17.094-24.713c-1.334-0.503-2.009-1.995-1.505-3.33
	c0.502-1.337,1.999-2.007,3.329-1.506c12.225,4.61,20.436,16.485,20.436,29.549c0,12.939-7.758,24.434-19.76,29.284
	C66.322,76.851,65.992,76.913,65.67,76.913z"/>
<path fill="#EBEBEB" d="M59.202,68.56c-1.022,0-1.991-0.61-2.396-1.616c-0.535-1.324,0.104-2.828,1.428-3.365
	c6.623-2.676,10.9-9.01,10.9-16.139c0-7.19-4.531-13.73-11.275-16.274c-1.334-0.505-2.01-1.995-1.506-3.331
	c0.502-1.336,1.996-2.009,3.33-1.506c8.744,3.298,14.621,11.783,14.621,21.11c0,9.246-5.548,17.464-14.134,20.931
	C59.852,68.5,59.521,68.56,59.202,68.56z"/>
<path fill="#EBEBEB" d="M15.634,30.896h-3.858c0-1.428-1.157-2.584-2.584-2.584c-1.427,0-2.583,1.157-2.583,2.584v4.884
	C2.657,38.122,0,42.417,0,47.343c0,4.927,2.657,9.221,6.608,11.564v4.92c0,1.428,1.157,2.584,2.583,2.584
	c1.427,0,2.584-1.156,2.584-2.584v-0.179h3.858L15.634,30.896L15.634,30.896z"/>
</svg>
