<?xml version="1.0" encoding="utf-8"?>
<!-- Generator: Adobe Illustrator 16.0.4, SVG Export Plug-In . SVG Version: 6.00 Build 0)  -->
<!DOCTYPE svg PUBLIC "-//W3C//DTD SVG 1.1//EN" "http://www.w3.org/Graphics/SVG/1.1/DTD/svg11.dtd">
<svg version="1.1" xmlns="http://www.w3.org/2000/svg" xmlns:xlink="http://www.w3.org/1999/xlink" x="0px" y="0px" width="10.8px"
	 height="5.76px" viewBox="0.022 11.016 10.8 5.76" enable-background="new 0.022 11.016 10.8 5.76" xml:space="preserve">
<g id="Layer_1">
	<path fill="#949494" d="M4.489,11.111l-0.225,0.875H4.241l-0.236-0.875H3.639l0.465,1.449v0.61h0.267v-0.65l0.487-1.409H4.489
		L4.489,11.111z M5.653,12.064c0-0.124-0.043-0.225-0.128-0.303c-0.085-0.078-0.106-0.142-0.24-0.142
		c-0.147,0-0.183,0.062-0.27,0.136c-0.087,0.074-0.131,0.174-0.131,0.299v0.676c0,0.137,0.043,0.246,0.127,0.328
		c0.085,0.08,0.126,0.12,0.267,0.12c0.146,0,0.166-0.039,0.25-0.117c0.083-0.078,0.125-0.187,0.125-0.324V12.064L5.653,12.064z
		 M6.684,11.62H6.425v1.032c-0.03,0.036-0.063,0.064-0.1,0.088c-0.036,0.022-0.066,0.131-0.09,0.131
		c-0.03,0-0.036-0.009-0.049-0.026c-0.014-0.017-0.021-0.044-0.021-0.083V11.62H5.907v1.253c0,0.098,0.019,0.169,0.057,0.217
		s0.013,0.072,0.088,0.072c0.061,0,0.123-0.018,0.187-0.052c0.064-0.034,0.127-0.182,0.186-0.247v0.275h0.258L6.684,11.62
		L6.684,11.62z M8.234,14.737c0-0.584-0.463-1.058-1.035-1.058H3.601c-0.572,0-1.036,0.474-1.036,1.058v0.98
		c0,0.583,0.464,1.058,1.036,1.058h3.599c0.572,0,1.035-0.475,1.035-1.058V14.737L8.234,14.737z M6.808,16.258
		c-0.118,0-0.211-0.038-0.278-0.112c-0.067-0.073-0.102-0.176-0.102-0.307v-0.607c0-0.117,0.038-0.332,0.112-0.406
		c0.074-0.074,0.169-0.11,0.287-0.11c0.12,0,0.212,0.034,0.277,0.103C7.168,14.886,7.2,15.103,7.2,15.231v0.256h-0.5v0.344
		c0,0.071,0.008,0.121,0.025,0.148c0.017,0.027,0.047,0.041,0.088,0.041c0.043,0,0.074-0.012,0.092-0.035
		c0.017-0.023,0.026-0.075,0.026-0.154V15.77H7.2v0.069c0,0.139-0.032,0.243-0.098,0.313C7.036,16.223,6.938,16.258,6.808,16.258
		L6.808,16.258z M6.931,15.277v-0.049c0-0.056-0.01-0.216-0.028-0.24s-0.048-0.036-0.088-0.036c-0.042,0-0.071,0.012-0.089,0.036
		c-0.019,0.024-0.028,0.184-0.028,0.24v0.049H6.931L6.931,15.277z M5.926,16.26c-0.053,0-0.101-0.01-0.141-0.031
		c-0.041-0.02-0.08-0.053-0.116-0.096v0.108H5.396v-2.043h0.257v0.618c0.037-0.043,0.091-0.076,0.132-0.099
		c0.042-0.022,0.083-0.034,0.125-0.034c0.086,0,0.151,0.031,0.195,0.091c0.046,0.061,0.068,0.148,0.068,0.265v0.91
		c0,0.101-0.021,0.177-0.064,0.23C6.067,16.233,6.006,16.26,5.926,16.26L5.926,16.26z M5.919,15.055
		c0-0.048-0.034-0.084-0.053-0.109c-0.02-0.024-0.047-0.036-0.084-0.036c-0.02,0-0.038,0.004-0.057,0.014
		c-0.019,0.01-0.053,0.023-0.072,0.044v1.006c0.021,0.022,0.059,0.04,0.08,0.05c0.021,0.011,0.042,0.016,0.065,0.016
		c0.033,0,0.057-0.01,0.073-0.03c0.015-0.02,0.047-0.053,0.047-0.098V15.055L5.919,15.055z M4.871,16.072
		c-0.05,0.057-0.102,0.115-0.156,0.146c-0.054,0.029-0.106,0.044-0.156,0.044c-0.063,0-0.11-0.021-0.141-0.062
		c-0.032-0.043-0.056-0.104-0.056-0.188v-1.293h0.262v1.197c0,0.033,0.005,0.057,0.017,0.071s0.03,0.022,0.056,0.022
		c0.02,0,0.061-0.01,0.091-0.029c0.031-0.021,0.074-0.045,0.1-0.074v-1.188h0.254v1.539H4.871V16.072L4.871,16.072z M4.11,16.257
		H3.852v-1.802H3.597v-0.257h0.775v0.257H4.11V16.257L4.11,16.257z M5.27,12.899c-0.043,0-0.076-0.012-0.099-0.036
		s-0.034-0.059-0.034-0.103v-0.719c0-0.035,0.012-0.063,0.036-0.085c0.026-0.022,0.057-0.033,0.097-0.033
		c0.042,0,0.061,0.011,0.087,0.033c0.026,0.021,0.04,0.05,0.04,0.085v0.719c0,0.044-0.013,0.077-0.039,0.103
		C5.332,12.888,5.313,12.899,5.27,12.899L5.27,12.899z"/>
</g>
<g id="Creative_Commons_License" display="none">
	
		<text id="Creative_Commons_License_1_" transform="matrix(1 0 0 1 -17.875 39.9395)" display="inline" font-family="'MyriadPro-Regular'" font-size="12">With assets by Visual Idiot, Brankic1979 / CC BY</text>
</g>
</svg>
