<?xml version="1.0" encoding="utf-8"?>
<!-- Generator: Adobe Illustrator 16.0.4, SVG Export Plug-In . SVG Version: 6.00 Build 0)  -->
<!DOCTYPE svg PUBLIC "-//W3C//DTD SVG 1.1//EN" "http://www.w3.org/Graphics/SVG/1.1/DTD/svg11.dtd">
<svg version="1.1" id="Ebene_1" xmlns="http://www.w3.org/2000/svg" xmlns:xlink="http://www.w3.org/1999/xlink" x="0px" y="0px"
	 width="100px" height="100px" viewBox="0 0 100 100" enable-background="new 0 0 100 100" xml:space="preserve">
<path d="M89.09,56.664h-4.43l-2.868-5.09c-0.229-0.406-0.657-0.658-1.124-0.662c-0.003,0-0.006,0-0.01,0
	c-0.462,0-0.89,0.246-1.123,0.645l-5.178,8.863l-5.719-18.678c-0.178-0.581-0.732-0.962-1.34-0.917
	c-0.606,0.044-1.101,0.503-1.191,1.104l-5.151,34.177L55.253,12.94c-0.06-0.66-0.604-1.169-1.268-1.184
	c-0.665-0.015-1.229,0.471-1.317,1.127l-6.115,45.388l-4.785-9.491c-0.244-0.483-0.761-0.765-1.298-0.708
	c-0.538,0.057-0.984,0.44-1.122,0.963l-5.094,19.396l-5.712-36.462c-0.096-0.614-0.614-1.075-1.236-1.099
	c-0.622-0.025-1.173,0.395-1.316,1l-5.863,24.792H10.7c-0.503-1.159-0.503,3.762,0,2.603h10.455c0.604,0,1.127-0.415,1.267-1.002
	l4.574-19.343l5.649,36.06c0.096,0.609,0.604,1.067,1.22,1.099c0.615,0.032,1.168-0.373,1.324-0.969l5.803-22.09l5.128,10.171
	c0.257,0.509,0.815,0.792,1.377,0.697c0.562-0.095,0.998-0.545,1.074-1.109l5.13-38.083l5.635,62.404
	c0.061,0.656,0.6,1.164,1.258,1.184c0.014,0.001,0.026,0.001,0.039,0.001c0.642,0,1.189-0.469,1.286-1.107l5.908-39.198
	l4.912,16.042c0.151,0.493,0.581,0.852,1.094,0.91c0.515,0.061,1.013-0.189,1.274-0.636l5.531-9.47l2.128,3.776
	c0.23,0.409,0.663,0.663,1.134,0.663h5.189C89.593,60.425,89.593,55.504,89.09,56.664z"/>
</svg>
