<?xml version="1.0" encoding="utf-8"?>
<!-- Generator: Adobe Illustrator 16.0.4, SVG Export Plug-In . SVG Version: 6.00 Build 0)  -->
<!DOCTYPE svg PUBLIC "-//W3C//DTD SVG 1.1//EN" "http://www.w3.org/Graphics/SVG/1.1/DTD/svg11.dtd">
<svg version="1.1" id="orig_note" xmlns="http://www.w3.org/2000/svg" xmlns:xlink="http://www.w3.org/1999/xlink" x="0px" y="0px"
	 width="506px" height="118px" viewBox="0 0 506 118" enable-background="new 0 0 506 118" xml:space="preserve">
<path fill="#343838" d="M460.303,20.261c-5.292-6.13-13.556,2.983-16.395,6.513v-0.006c0,0-8.68,10.747-11.16,6.614
	c4.816,19.883,9.457,45.83,12.119,61.581c-3.567-5.91-13.826-10.451-26.095-10.919c-15.465-0.591-28.254,5.512-28.564,13.631
	c-0.311,8.12,11.976,15.182,27.441,15.772s28.255-5.512,28.565-13.632c0.015-0.379-0.008-0.754-0.047-1.128
	c0.062-0.262,0.099-0.523,0.082-0.781c-1.527-24.298-2.066-44.792-2.253-57.452c4.474-5.323,11.028-16.169,15.065-11.1
	C483,59.417,498.417,6.333,498.417,6.333C487,35.166,472.166,34,460.303,20.261z"/>
<text transform="matrix(1 0 0 1 11.103 113.1216)"><tspan x="0" y="0" fill="#343838" font-family="'OpenSans-Light'" font-size="92.0102" letter-spacing="-9">Y</tspan><tspan x="39.365" y="0" fill="#343838" font-family="'OpenSans-Light'" font-size="92.0102" letter-spacing="-1">o</tspan><tspan x="91.437" y="0" fill="#343838" font-family="'OpenSans-Light'" font-size="92.0102" letter-spacing="-9">o</tspan><tspan x="136.148" y="0" fill="#B72425" font-family="'OpenSans-Light'" font-size="92.0102" letter-spacing="-11">T</tspan><tspan x="173.313" y="0" fill="#B72425" font-family="'OpenSans-Light'" font-size="92.0102">u</tspan><tspan x="227.585" y="0" fill="#B72425" font-family="'OpenSans-Light'" font-size="92.0102" letter-spacing="-1">n</tspan><tspan x="280.016" y="0" fill="#B72425" font-family="'OpenSans-Light'" font-size="92.0102" letter-spacing="-3">e</tspan><tspan x="326.834" y="0" fill="#B72425" font-family="'OpenSans-Light'" font-size="92.0102">s</tspan></text>
</svg>
