<?xml version="1.0" encoding="utf-8"?>
<!-- Generator: Adobe Illustrator 16.0.4, SVG Export Plug-In . SVG Version: 6.00 Build 0)  -->
<!DOCTYPE svg PUBLIC "-//W3C//DTD SVG 1.1//EN" "http://www.w3.org/Graphics/SVG/1.1/DTD/svg11.dtd">
<svg version="1.1" id="orig_note" xmlns="http://www.w3.org/2000/svg" xmlns:xlink="http://www.w3.org/1999/xlink" x="0px" y="0px"
	 width="193.833px" height="47px" viewBox="153 56.917 193.833 47" enable-background="new 153 56.917 193.833 47"
	 xml:space="preserve">
<path fill="#EFEFEF" d="M329.699,66.19c-2.067-2.394-5.294,1.165-6.403,2.544v-0.002c0,0-3.39,4.197-4.358,2.582
	c1.881,7.766,3.693,17.898,4.733,24.05c-1.394-2.308-5.399-4.081-10.191-4.264c-6.04-0.231-11.034,2.152-11.155,5.323
	s4.677,5.93,10.717,6.159c6.04,0.23,11.035-2.152,11.155-5.324c0.007-0.147-0.003-0.294-0.018-0.439
	c0.024-0.103,0.038-0.205,0.031-0.306c-0.596-9.489-0.807-17.492-0.879-22.437c1.747-2.079,4.307-6.315,5.883-4.335
	c9.35,11.74,15.37-8.99,15.37-8.99C340.125,72.012,334.332,71.557,329.699,66.19z"/>
<text transform="matrix(1 0 0 1 154.2686 102.4551)" fill="#EFEFEF" font-family="'OpenSans-Light'" font-size="35.9334" letter-spacing="-3">Y</text>
<text transform="matrix(1 0 0 1 169.6421 102.4551)" fill="#EFEFEF" font-family="'OpenSans-Light'" font-size="35.9334">o</text>
<text transform="matrix(1 0 0 1 189.979 102.4551)" fill="#EFEFEF" font-family="'OpenSans-Light'" font-size="35.9334" letter-spacing="-3">o</text>
<text transform="matrix(1 0 0 1 207.4399 102.4551)" fill="#B72425" font-family="'OpenSans-Light'" font-size="35.9334" letter-spacing="-4">T</text>
<text transform="matrix(1 0 0 1 221.9541 102.4551)" fill="#B72425" font-family="'OpenSans-Light'" font-size="35.9334">u</text>
<text transform="matrix(1 0 0 1 243.1494 102.4551)" fill="#B72425" font-family="'OpenSans-Light'" font-size="35.9334">n</text>
<text transform="matrix(1 0 0 1 263.625 102.4551)" fill="#B72425" font-family="'OpenSans-Light'" font-size="35.9334" letter-spacing="-1">e</text>
<text transform="matrix(1 0 0 1 281.9092 102.4551)" fill="#B72425" font-family="'OpenSans-Light'" font-size="35.9334">s</text>
</svg>
